# xmcd
#
# Track frame offsets:
#	187
#	27175
#	49225
#	67075
#	101800
#	124150
#	150250
#	179567
#	207692
#
# Disc length: 3026 seconds
#
# Revision: 1
# Processed by: cddbd v1.5.2PL0 Copyright (c) Steve Scherf et al.
# Submitted via: audiograbber 1.83.01
#
DISCID=830bd009
DTITLE=Valery Ponomarev - Means Of Identification
DYEAR=1985
DGENRE=Jazz
TTITLE0=Dialogue
TTITLE1=Means of Identification
TTITLE2=Mirage
TTITLE3=I Remember Clifford
TTITLE4=Fifteenth Round
TTITLE5=Envoy
TTITLE6=Take Care
TTITLE7=Take Care (Alternate Take)
TTITLE8=Russian Christmas Song
EXTD=YEAR: 1985
EXTT0=
EXTT1=
EXTT2=
EXTT3=
EXTT4=
EXTT5=
EXTT6=
EXTT7=
EXTT8=
PLAYORDER=
